<?xml version="1.0" encoding="UTF-8" standalone="no"?>
<!-- Generator: Adobe Illustrator 18.1.1, SVG Export Plug-In . SVG Version: 6.00 Build 0)  -->

<svg
   xmlns:dc="http://purl.org/dc/elements/1.1/"
   xmlns:cc="http://creativecommons.org/ns#"
   xmlns:rdf="http://www.w3.org/1999/02/22-rdf-syntax-ns#"
   xmlns:svg="http://www.w3.org/2000/svg"
   xmlns="http://www.w3.org/2000/svg"
   xmlns:sodipodi="http://sodipodi.sourceforge.net/DTD/sodipodi-0.dtd"
   xmlns:inkscape="http://www.inkscape.org/namespaces/inkscape"
   version="1.1"
   id="Layer_1"
   x="0px"
   y="0px"
   width="198px"
   height="99px"
   viewBox="0 0 198 99"
   enable-background="new 0 0 198 99"
   xml:space="preserve"
   inkscape:version="0.91 r13725"
   sodipodi:docname="buttons.svg"><metadata
     id="metadata327"><rdf:RDF><cc:Work
         rdf:about=""><dc:format>image/svg+xml</dc:format><dc:type
           rdf:resource="http://purl.org/dc/dcmitype/StillImage" /><dc:title /></cc:Work></rdf:RDF></metadata><defs
     id="defs325" /><sodipodi:namedview
     pagecolor="#ffffff"
     bordercolor="#666666"
     borderopacity="1"
     objecttolerance="10"
     gridtolerance="10"
     guidetolerance="10"
     inkscape:pageopacity="0"
     inkscape:pageshadow="2"
     inkscape:window-width="1920"
     inkscape:window-height="1010"
     id="namedview323"
     showgrid="false"
     showguides="true"
     inkscape:guide-bbox="true"
     inkscape:zoom="2.358864"
     inkscape:cx="122.82448"
     inkscape:cy="57.681388"
     inkscape:window-x="0"
     inkscape:window-y="0"
     inkscape:window-maximized="1"
     inkscape:current-layer="Layer_1" /><g
     id="g5"
     transform="translate(-0.12000084,0)"><circle
       cx="16.620001"
       cy="16.608999"
       r="12"
       id="circle7"
       style="fill:#ffcc00" /><polyline
       stroke-miterlimit="10"
       points="21.453,12.745 15.788,20.571    11.775,16.658  "
       id="polyline9"
       style="fill:none;stroke:#655100;stroke-width:2.30489993;stroke-miterlimit:10" /></g><g
     id="g4473"><circle
       cx="16.5"
       cy="49.465"
       r="12"
       id="circle13"
       style="fill:#74cac2;fill-opacity:1" /><polyline
       transform="translate(-0.12000084,0)"
       stroke-miterlimit="10"
       points="21.453,45.601 15.788,53.427    11.775,49.514  "
       id="polyline15"
       style="fill:none;stroke:#42525a;stroke-width:2.30489993;stroke-miterlimit:10;stroke-opacity:1" /></g><polyline
     style="fill:none;stroke:#74cac2;stroke-width:2.30489993;stroke-miterlimit:10;stroke-opacity:1"
     id="polyline21"
     points="21.453,78.612 15.788,86.438    11.775,82.525  "
     stroke-miterlimit="10"
     transform="translate(-0.12000084,0)" /><g
     id="g23"
     transform="translate(-0.26100159,0)"><circle
       cx="49.761002"
       cy="16.608999"
       r="12"
       id="circle25"
       style="fill:#ffcc00" /><polygon
       points="45.412,15.313 49.307,15.313 49.307,11.53 54.701,16.875 49.331,22.245 49.331,18.563 45.412,18.539 "
       id="polygon27"
       style="fill:#655100" /></g><g
     id="g4573"><circle
       cx="49.5"
       cy="49.465"
       r="12"
       id="circle31"
       style="fill:#74cac2;fill-opacity:1" /><polygon
       transform="translate(-0.26100159,0)"
       points="49.307,44.386 54.701,49.731 49.331,55.101 49.331,51.419 45.412,51.394 45.412,48.169 49.307,48.169 "
       id="polygon33"
       style="fill:#42525a;fill-opacity:1" /></g><polygon
     style="fill:#74cac2;fill-opacity:1"
     id="polygon39"
     points="49.307,77.397 54.701,82.743 49.331,88.113 49.331,84.43 45.412,84.406 45.412,81.18 49.307,81.18 "
     transform="translate(-0.26100159,0)" /><g
     id="g41"
     transform="translate(-0.54399872,0)"><rect
       x="105.544"
       y="6.1090002"
       width="21"
       height="21"
       id="rect43"
       style="fill:#ffcc00" /><polygon
       points="114.44,19.083 114.44,15.116 110.586,15.116 116.032,9.621 121.502,15.091 117.751,15.091 117.726,19.083 "
       id="polygon45"
       style="fill:#655100" /><rect
       x="110.511"
       y="22.193001"
       width="1"
       height="1"
       id="rect47"
       style="fill:#655100" /><rect
       x="112.518"
       y="22.193001"
       width="1"
       height="1"
       id="rect49"
       style="fill:#655100" /><rect
       x="114.517"
       y="22.193001"
       width="1"
       height="1"
       id="rect51"
       style="fill:#655100" /><rect
       x="116.525"
       y="22.193001"
       width="1"
       height="1"
       id="rect53"
       style="fill:#655100" /><rect
       x="118.524"
       y="22.193001"
       width="1"
       height="1"
       id="rect55"
       style="fill:#655100" /><rect
       x="120.531"
       y="22.193001"
       width="1"
       height="1"
       id="rect57"
       style="fill:#655100" /></g><g
     id="g59"
     transform="translate(-0.68600464,0)"><rect
       x="138.686"
       y="6.1090002"
       width="21"
       height="21"
       id="rect61"
       style="fill:#ffcc00" /><polygon
       points="150.79,9.621 150.79,13.588 154.644,13.588 149.198,19.083 143.728,13.612 147.479,13.613 147.504,9.621 "
       id="polygon63"
       style="fill:#655100" /><rect
       x="143.65199"
       y="22.193001"
       width="1"
       height="1"
       id="rect65"
       style="fill:#655100" /><rect
       x="145.66"
       y="22.193001"
       width="1"
       height="1"
       id="rect67"
       style="fill:#655100" /><rect
       x="147.659"
       y="22.193001"
       width="1"
       height="1"
       id="rect69"
       style="fill:#655100" /><rect
       x="149.666"
       y="22.193001"
       width="1"
       height="1"
       id="rect71"
       style="fill:#655100" /><rect
       x="151.666"
       y="22.193001"
       width="1"
       height="1"
       id="rect73"
       style="fill:#655100" /><rect
       x="153.673"
       y="22.193001"
       width="1"
       height="1"
       id="rect75"
       style="fill:#655100" /></g><g
     id="g4541"><rect
       x="105"
       y="38.965"
       width="21"
       height="21"
       id="rect79"
       style="fill:#74cac2;fill-opacity:1" /><polygon
       transform="translate(-0.54399872,0)"
       points="110.586,47.971 116.032,42.476 121.502,47.947 117.751,47.947 117.726,51.939 114.44,51.939 114.44,47.971 "
       id="polygon81"
       style="fill:#42525a;fill-opacity:1" /><rect
       x="109.967"
       y="55.049"
       width="1"
       height="1"
       id="rect83"
       style="fill:#42525a;fill-opacity:1" /><rect
       x="111.974"
       y="55.049"
       width="1"
       height="1"
       id="rect85"
       style="fill:#42525a;fill-opacity:1" /><rect
       x="113.973"
       y="55.049"
       width="1"
       height="1"
       id="rect87"
       style="fill:#42525a;fill-opacity:1" /><rect
       x="115.981"
       y="55.049"
       width="1"
       height="1"
       id="rect89"
       style="fill:#42525a;fill-opacity:1" /><rect
       x="117.98"
       y="55.049"
       width="1"
       height="1"
       id="rect91"
       style="fill:#42525a;fill-opacity:1" /><rect
       x="119.987"
       y="55.049"
       width="1"
       height="1"
       id="rect93"
       style="fill:#42525a;fill-opacity:1" /></g><g
     id="g4531"><rect
       x="138"
       y="38.965"
       width="21"
       height="21"
       id="rect97"
       style="fill:#74cac2;fill-opacity:1" /><polygon
       transform="translate(-0.68600464,0)"
       points="154.644,46.444 149.198,51.939 143.728,46.468 147.479,46.468 147.504,42.477 150.79,42.476 150.79,46.444 "
       id="polygon99"
       style="fill:#42525a;fill-opacity:1" /><rect
       x="142.96599"
       y="55.049"
       width="1"
       height="1"
       id="rect101"
       style="fill:#42525a;fill-opacity:1" /><rect
       x="144.974"
       y="55.049"
       width="1"
       height="1"
       id="rect103"
       style="fill:#42525a;fill-opacity:1" /><rect
       x="146.97299"
       y="55.049"
       width="1"
       height="1"
       id="rect105"
       style="fill:#42525a;fill-opacity:1" /><rect
       x="148.98"
       y="55.049"
       width="1"
       height="1"
       id="rect107"
       style="fill:#42525a;fill-opacity:1" /><rect
       x="150.98"
       y="55.049"
       width="1"
       height="1"
       id="rect109"
       style="fill:#42525a;fill-opacity:1" /><rect
       x="152.987"
       y="55.049"
       width="1"
       height="1"
       id="rect111"
       style="fill:#42525a;fill-opacity:1" /></g><g
     id="g4432"><polygon
       transform="translate(-0.54399872,0)"
       points="121.502,80.959 117.751,80.958 117.726,84.95 114.44,84.95 114.44,80.983 110.586,80.983 116.032,75.488 "
       id="polygon117"
       style="fill:#74cac2;fill-opacity:1" /><rect
       x="109.967"
       y="88.060997"
       width="1"
       height="1"
       id="rect119"
       style="fill:#74cac2;fill-opacity:1" /><rect
       x="111.974"
       y="88.060997"
       width="1"
       height="1"
       id="rect121"
       style="fill:#74cac2;fill-opacity:1" /><rect
       x="113.973"
       y="88.060997"
       width="1"
       height="1"
       id="rect123"
       style="fill:#74cac2;fill-opacity:1" /><rect
       x="115.981"
       y="88.060997"
       width="1"
       height="1"
       id="rect125"
       style="fill:#74cac2;fill-opacity:1" /><rect
       x="117.98"
       y="88.060997"
       width="1"
       height="1"
       id="rect127"
       style="fill:#74cac2;fill-opacity:1" /><rect
       x="119.987"
       y="88.060997"
       width="1"
       height="1"
       id="rect129"
       style="fill:#74cac2;fill-opacity:1" /></g><g
     id="g4448"><polygon
       transform="translate(-0.68600464,0)"
       points="143.728,79.48 147.479,79.48 147.504,75.488 150.79,75.488 150.79,79.455 154.644,79.455 149.198,84.95 "
       id="polygon135"
       style="fill:#74cac2;fill-opacity:1" /><rect
       x="142.96599"
       y="88.060997"
       width="1"
       height="1"
       id="rect137"
       style="fill:#74cac2;fill-opacity:1" /><rect
       x="144.974"
       y="88.060997"
       width="1"
       height="1"
       id="rect139"
       style="fill:#74cac2;fill-opacity:1" /><rect
       x="146.97299"
       y="88.060997"
       width="1"
       height="1"
       id="rect141"
       style="fill:#74cac2;fill-opacity:1" /><rect
       x="148.98"
       y="88.060997"
       width="1"
       height="1"
       id="rect143"
       style="fill:#74cac2;fill-opacity:1" /><rect
       x="150.98"
       y="88.060997"
       width="1"
       height="1"
       id="rect145"
       style="fill:#74cac2;fill-opacity:1" /><rect
       x="152.987"
       y="88.060997"
       width="1"
       height="1"
       id="rect147"
       style="fill:#74cac2;fill-opacity:1" /></g><g
     id="g149"
     transform="translate(-0.40299988,0)"><path
       d="M 87.445,22.097"
       id="path151"
       inkscape:connector-curvature="0"
       style="fill:#655100" /><rect
       x="72.403"
       y="6.1090002"
       width="21"
       height="21"
       id="rect153"
       style="fill:#ffcc00" /><polygon
       points="83.44,10.094 84.441,10.094 88.421,14.079 88.421,15.057 87.445,15.057 83.44,15.057 "
       id="polygon155"
       style="fill:#655100" /><polygon
       points="78.404,11.093 78.404,22.097 87.445,22.097 87.445,14.87 88.421,14.87 88.421,23.134 77.399,23.134 77.399,10.094 83.562,10.094 83.568,11.093 "
       id="polygon157"
       style="fill:#655100" /><rect
       x="79.399002"
       y="12.111"
       width="0.995"
       height="0.99599999"
       id="rect159"
       style="fill:#655100" /><rect
       x="81.394997"
       y="12.111"
       width="0.995"
       height="0.99599999"
       id="rect161"
       style="fill:#655100" /><rect
       x="79.399002"
       y="14.103"
       width="0.995"
       height="0.99599999"
       id="rect163"
       style="fill:#655100" /><rect
       x="81.394997"
       y="14.103"
       width="0.995"
       height="0.99599999"
       id="rect165"
       style="fill:#655100" /><rect
       x="79.399002"
       y="16.115999"
       width="0.995"
       height="0.99599999"
       id="rect167"
       style="fill:#655100" /><rect
       x="81.394997"
       y="16.115999"
       width="0.995"
       height="0.99599999"
       id="rect169"
       style="fill:#655100" /><rect
       x="83.403"
       y="16.115999"
       width="0.995"
       height="0.99599999"
       id="rect171"
       style="fill:#655100" /><rect
       x="85.400002"
       y="16.115999"
       width="0.995"
       height="0.99599999"
       id="rect173"
       style="fill:#655100" /><rect
       x="79.399002"
       y="18.118"
       width="0.995"
       height="0.99599999"
       id="rect175"
       style="fill:#655100" /><rect
       x="81.394997"
       y="18.118"
       width="0.995"
       height="0.99599999"
       id="rect177"
       style="fill:#655100" /><rect
       x="79.399002"
       y="20.132"
       width="0.995"
       height="0.99599999"
       id="rect179"
       style="fill:#655100" /><rect
       x="81.394997"
       y="20.132"
       width="0.995"
       height="0.99599999"
       id="rect181"
       style="fill:#655100" /><rect
       x="83.403"
       y="18.118"
       width="0.995"
       height="0.99599999"
       id="rect183"
       style="fill:#655100" /><rect
       x="85.400002"
       y="18.118"
       width="0.995"
       height="0.99599999"
       id="rect185"
       style="fill:#655100" /><rect
       x="83.403"
       y="20.132"
       width="0.995"
       height="0.99599999"
       id="rect187"
       style="fill:#655100" /><rect
       x="85.400002"
       y="20.132"
       width="0.995"
       height="0.99599999"
       id="rect189"
       style="fill:#655100" /></g><g
     id="g4551"><path
       d="M 87.042,54.953"
       id="path193"
       inkscape:connector-curvature="0"
       style="fill:#42525a;fill-opacity:1" /><rect
       x="72"
       y="38.965"
       width="21"
       height="21"
       id="rect195"
       style="fill:#74cac2;fill-opacity:1" /><polygon
       transform="translate(-0.40299988,0)"
       points="88.421,46.935 88.421,47.912 87.445,47.912 83.44,47.912 83.44,42.95 84.441,42.95 "
       id="polygon197"
       style="fill:#42525a;fill-opacity:1" /><polygon
       transform="translate(-0.40299988,0)"
       points="87.445,54.953 87.445,47.726 88.421,47.726 88.421,55.99 77.399,55.99 77.399,42.95 83.586,42.95 83.599,43.951 78.404,43.949 78.404,54.953 "
       id="polygon199"
       style="fill:#42525a;fill-opacity:1" /><rect
       x="78.996002"
       y="44.966999"
       width="0.995"
       height="0.99599999"
       id="rect201"
       style="fill:#42525a;fill-opacity:1" /><rect
       x="80.991997"
       y="44.966999"
       width="0.995"
       height="0.99599999"
       id="rect203"
       style="fill:#42525a;fill-opacity:1" /><rect
       x="78.996002"
       y="46.959"
       width="0.995"
       height="0.99599999"
       id="rect205"
       style="fill:#42525a;fill-opacity:1" /><rect
       x="80.991997"
       y="46.959"
       width="0.995"
       height="0.99599999"
       id="rect207"
       style="fill:#42525a;fill-opacity:1" /><rect
       x="78.996002"
       y="48.972"
       width="0.995"
       height="0.99599999"
       id="rect209"
       style="fill:#42525a;fill-opacity:1" /><rect
       x="80.991997"
       y="48.972"
       width="0.995"
       height="0.99599999"
       id="rect211"
       style="fill:#42525a;fill-opacity:1" /><rect
       x="83"
       y="48.972"
       width="0.995"
       height="0.99599999"
       id="rect213"
       style="fill:#42525a;fill-opacity:1" /><rect
       x="84.997002"
       y="48.972"
       width="0.995"
       height="0.99599999"
       id="rect215"
       style="fill:#42525a;fill-opacity:1" /><rect
       x="78.996002"
       y="50.973999"
       width="0.995"
       height="0.99599999"
       id="rect217"
       style="fill:#42525a;fill-opacity:1" /><rect
       x="80.991997"
       y="50.973999"
       width="0.995"
       height="0.99599999"
       id="rect219"
       style="fill:#42525a;fill-opacity:1" /><rect
       x="78.996002"
       y="52.987"
       width="0.995"
       height="0.99599999"
       id="rect221"
       style="fill:#42525a;fill-opacity:1" /><rect
       x="80.991997"
       y="52.987"
       width="0.995"
       height="0.99599999"
       id="rect223"
       style="fill:#42525a;fill-opacity:1" /><rect
       x="83"
       y="50.973999"
       width="0.995"
       height="0.99599999"
       id="rect225"
       style="fill:#42525a;fill-opacity:1" /><rect
       x="84.997002"
       y="50.973999"
       width="0.995"
       height="0.99599999"
       id="rect227"
       style="fill:#42525a;fill-opacity:1" /><rect
       x="83"
       y="52.987"
       width="0.995"
       height="0.99599999"
       id="rect229"
       style="fill:#42525a;fill-opacity:1" /><rect
       x="84.997002"
       y="52.987"
       width="0.995"
       height="0.99599999"
       id="rect231"
       style="fill:#42525a;fill-opacity:1" /></g><g
     id="g4404"><path
       d="M 87.042,87.965"
       id="path235"
       inkscape:connector-curvature="0"
       style="fill:#74cac2;fill-opacity:1" /><polygon
       transform="translate(-0.40299988,0)"
       points="87.445,80.924 83.44,80.924 83.44,75.961 84.441,75.961 88.421,79.946 88.421,80.924 "
       id="polygon239"
       style="fill:#74cac2;fill-opacity:1" /><polygon
       transform="translate(-0.40299988,0)"
       points="88.421,80.738 88.421,89.002 77.399,89.002 77.399,75.961 83.586,75.961 83.599,76.963 78.404,76.961 78.404,87.965 87.445,87.965 87.445,80.738 "
       id="polygon241"
       style="fill:#74cac2;fill-opacity:1" /><rect
       x="78.996002"
       y="77.977997"
       width="0.995"
       height="0.99599999"
       id="rect243"
       style="fill:#74cac2;fill-opacity:1" /><rect
       x="80.991997"
       y="77.977997"
       width="0.995"
       height="0.99599999"
       id="rect245"
       style="fill:#74cac2;fill-opacity:1" /><rect
       x="78.996002"
       y="79.970001"
       width="0.995"
       height="0.99599999"
       id="rect247"
       style="fill:#74cac2;fill-opacity:1" /><rect
       x="80.991997"
       y="79.970001"
       width="0.995"
       height="0.99599999"
       id="rect249"
       style="fill:#74cac2;fill-opacity:1" /><rect
       x="78.996002"
       y="81.984001"
       width="0.995"
       height="0.99599999"
       id="rect251"
       style="fill:#74cac2;fill-opacity:1" /><rect
       x="80.991997"
       y="81.984001"
       width="0.995"
       height="0.99599999"
       id="rect253"
       style="fill:#74cac2;fill-opacity:1" /><rect
       x="83"
       y="81.984001"
       width="0.995"
       height="0.99599999"
       id="rect255"
       style="fill:#74cac2;fill-opacity:1" /><rect
       x="84.997002"
       y="81.984001"
       width="0.995"
       height="0.99599999"
       id="rect257"
       style="fill:#74cac2;fill-opacity:1" /><rect
       x="78.996002"
       y="83.986"
       width="0.995"
       height="0.99599999"
       id="rect259"
       style="fill:#74cac2;fill-opacity:1" /><rect
       x="80.991997"
       y="83.986"
       width="0.995"
       height="0.99599999"
       id="rect261"
       style="fill:#74cac2;fill-opacity:1" /><rect
       x="78.996002"
       y="85.999001"
       width="0.995"
       height="0.99599999"
       id="rect263"
       style="fill:#74cac2;fill-opacity:1" /><rect
       x="80.991997"
       y="85.999001"
       width="0.995"
       height="0.99599999"
       id="rect265"
       style="fill:#74cac2;fill-opacity:1" /><rect
       x="83"
       y="83.986"
       width="0.995"
       height="0.99599999"
       id="rect267"
       style="fill:#74cac2;fill-opacity:1" /><rect
       x="84.997002"
       y="83.986"
       width="0.995"
       height="0.99599999"
       id="rect269"
       style="fill:#74cac2;fill-opacity:1" /><rect
       x="83"
       y="85.999001"
       width="0.995"
       height="0.99599999"
       id="rect271"
       style="fill:#74cac2;fill-opacity:1" /><rect
       x="84.997002"
       y="85.999001"
       width="0.995"
       height="0.99599999"
       id="rect273"
       style="fill:#74cac2;fill-opacity:1" /></g><g
     id="g275"
     transform="translate(-0.82800293,0)"><rect
       x="171.828"
       y="6.1090002"
       width="21"
       height="21"
       id="rect277"
       style="fill:#ffcc00" /><rect
       x="187.819"
       y="16.101"
       width="0.99900001"
       height="0.99800003"
       id="rect279"
       style="fill:#655100" /><rect
       x="189.825"
       y="16.101"
       width="0.99900001"
       height="0.99800003"
       id="rect281"
       style="fill:#655100" /><rect
       x="174.83299"
       y="16.101"
       width="0.99900001"
       height="0.99800003"
       id="rect283"
       style="fill:#655100" /><circle
       stroke-miterlimit="10"
       cx="181.80299"
       cy="16.101"
       r="4.0900002"
       id="circle285"
       style="fill:none;stroke:#655100;stroke-width:1.95439994;stroke-miterlimit:10" /><rect
       x="175.895"
       y="18.427999"
       transform="matrix(0.6915,0.7224,-0.7224,0.6915,69.5827,-121.6599)"
       width="2.6800001"
       height="4.4229999"
       id="rect287"
       style="fill:#655100" /><rect
       x="180.789"
       y="15.103"
       width="2.0280001"
       height="1.9960001"
       id="rect289"
       style="fill:#655100" /></g><g
     id="g4522"><rect
       x="171"
       y="38.965"
       width="21"
       height="21"
       id="rect293"
       style="fill:#74cac2;fill-opacity:1" /><rect
       x="186.991"
       y="48.957001"
       width="0.99900001"
       height="0.99800003"
       id="rect295"
       style="fill:#42525a;fill-opacity:1" /><rect
       x="188.99699"
       y="48.957001"
       width="0.99900001"
       height="0.99800003"
       id="rect297"
       style="fill:#42525a;fill-opacity:1" /><rect
       x="174.00499"
       y="48.957001"
       width="0.99900001"
       height="0.99800003"
       id="rect299"
       style="fill:#42525a;fill-opacity:1" /><circle
       stroke-miterlimit="10"
       cx="180.97499"
       cy="48.957001"
       r="4.0900002"
       id="circle301"
       style="fill:none;stroke:#42525a;stroke-width:1.95439994;stroke-miterlimit:10;stroke-opacity:1" /><rect
       x="159.28856"
       y="-92.645485"
       transform="matrix(0.69148824,0.72238772,-0.72238772,0.69148824,0,0)"
       width="2.6800456"
       height="4.4230752"
       id="rect303"
       style="fill:#42525a;fill-opacity:1" /><rect
       x="179.961"
       y="47.959"
       width="2.0280001"
       height="1.9960001"
       id="rect305"
       style="fill:#42525a;fill-opacity:1" /></g><g
     id="g4463"><rect
       x="186.991"
       y="81.969002"
       width="0.99900001"
       height="0.99800003"
       id="rect311"
       style="fill:#74cac2;fill-opacity:1" /><rect
       x="188.99699"
       y="81.969002"
       width="0.99900001"
       height="0.99800003"
       id="rect313"
       style="fill:#74cac2;fill-opacity:1" /><rect
       x="174.00499"
       y="81.969002"
       width="0.99900001"
       height="0.99800003"
       id="rect315"
       style="fill:#74cac2;fill-opacity:1" /><circle
       stroke-miterlimit="10"
       cx="180.97499"
       cy="81.969002"
       r="4.0900002"
       id="circle317"
       style="fill:none;stroke:#74cac2;stroke-width:1.95439994;stroke-miterlimit:10;stroke-opacity:1" /><rect
       x="183.13429"
       y="-69.817429"
       transform="matrix(0.69148824,0.72238772,-0.72238772,0.69148824,0,0)"
       width="2.6800456"
       height="4.4230752"
       id="rect319"
       style="fill:#74cac2;fill-opacity:1" /><rect
       x="179.961"
       y="80.970001"
       width="2.0280001"
       height="1.9960001"
       id="rect321"
       style="fill:#74cac2;fill-opacity:1" /></g></svg>